<?xml version="1.0" encoding="UTF-8" standalone="no"?>
<!DOCTYPE svg PUBLIC "-//W3C//DTD SVG 1.1//EN" "http://www.w3.org/Graphics/SVG/1.1/DTD/svg11.dtd">
<svg width="100%" height="100%" viewBox="0 0 2550 3300" version="1.1" xmlns="http://www.w3.org/2000/svg" xmlns:xlink="http://www.w3.org/1999/xlink" xml:space="preserve" xmlns:serif="http://www.serif.com/" style="fill-rule:evenodd;clip-rule:evenodd;stroke-linecap:round;stroke-linejoin:round;stroke-miterlimit:1.5;">
    <g id="Layer1" transform="matrix(1.31289,0,0,1.31289,-413.825,-313.672)">
        <g transform="matrix(1,0,0,1,-0.661237,5.91591)">
            <path d="M1296,278C1296,278 1389.17,281.503 1398,365C1410.72,485.281 1412.17,715.033 1427,821C1427,821 1442.89,1147.01 1582,1464C1682.49,1692.99 1927.54,1726.4 2188,1742C2188,1742 2226.03,1741.65 2240,1779L2241,1896C2241,1896 2234.18,1911.63 2192.41,1920.35C2150.85,1929.03 2074.49,1930.75 2015,1947C1925.41,1971.47 1764.74,2051.39 1677,2149C1568.83,2269.33 1394.24,2640.77 1366,2669C1337.76,2697.23 1309.4,2701.6 1286,2702" style="fill:none;stroke:rgb(16,62,255);stroke-width:14.28px;"/>
            <g transform="matrix(-1,0,0,1,2574,0)">
                <path d="M1296,278C1296,278 1389.17,281.503 1398,365C1410.72,485.281 1412.17,715.033 1427,821C1427,821 1442.89,1147.01 1582,1464C1682.49,1692.99 1927.54,1726.4 2188,1742C2188,1742 2226.03,1741.65 2240,1779L2241,1896C2236.11,1905.29 2196.61,1920.06 2147.64,1926.5C2087.55,1934.4 2046.95,1939.57 2015,1947C1924.55,1968.05 1764.74,2051.39 1677,2149C1568.83,2269.33 1394.24,2640.77 1366,2669C1337.76,2697.23 1309.4,2701.6 1286,2702" style="fill:none;stroke:rgb(16,62,255);stroke-width:14.28px;"/>
            </g>
            <path d="M1278,278C1278,278 1286.04,276.951 1296,278" style="fill:none;stroke:rgb(16,62,255);stroke-width:14.28px;"/>
        </g>
        <g transform="matrix(0.761677,0,0,0.761677,315.201,238.916)">
            <path d="M2202.72,2170.35C2202.72,2170.35 1335.83,2369.55 1272,3212C1272,3212 1212.41,3209.03 1177,3146C1050.4,2920.65 940.122,2659.78 795.622,2497.78C698.536,2388.94 526.56,2279.09 364.598,2229.54C280.481,2203.8 198.446,2195.29 108,2186L2202.72,2170.35Z" style="fill:rgb(16,62,255);stroke:rgb(16,62,255);stroke-width:18.75px;"/>
        </g>
        <g transform="matrix(0.761677,0,0,0.761677,315.201,238.916)">
            <path d="M1261,89L1266,1407C1266,1407 1297.1,1865.12 752,1966C752,1966 643.296,1984.94 317,1990C317,1990 469.064,1973.16 595.453,1927.51C739.517,1875.48 839.866,1771.17 894,1676C944.973,1586.38 1020.43,1363.01 1063.28,1179.7C1115.87,954.755 1128,738 1128,738C1128,738 1156.98,227.967 1160,179C1162.97,130.756 1196.53,98.461 1261,89Z" style="fill:rgb(16,62,255);stroke:rgb(16,62,255);stroke-width:18.75px;"/>
        </g>
    </g>
</svg>
